<svg width="181" height="27" viewBox="0 0 181 27" fill="none" xmlns="http://www.w3.org/2000/svg">
<path d="M0.268 26V1.412H8.26L13.228 17.828L18.088 1.412H26.188V26H21.22V7.784H20.716L15.568 25.352H10.888L5.74 7.784H5.236V26H0.268ZM37.7333 26.396C35.7413 26.396 34.1573 26.06 32.9813 25.388C31.8293 24.716 31.0013 23.696 30.4973 22.328C29.9933 20.96 29.7413 19.244 29.7413 17.18C29.7413 14.948 30.0533 13.124 30.6773 11.708C31.3253 10.292 32.2613 9.248 33.4853 8.576C34.7093 7.88 36.2213 7.532 38.0213 7.532C40.6853 7.532 42.6893 8.204 44.0333 9.548C45.4013 10.892 46.0853 13.016 46.0853 15.92L45.8693 18.584H34.5653C34.5893 19.928 34.8653 20.936 35.3933 21.608C35.9213 22.28 36.8333 22.616 38.1293 22.616C38.8733 22.616 39.6893 22.604 40.5773 22.58C41.4653 22.532 42.3413 22.484 43.2053 22.436C44.0933 22.388 44.8493 22.34 45.4733 22.292L45.5813 25.64C44.9813 25.736 44.2253 25.844 43.3133 25.964C42.4013 26.084 41.4533 26.18 40.4693 26.252C39.5093 26.348 38.5973 26.396 37.7333 26.396ZM34.5653 15.524H41.2973C41.2973 13.892 41.0333 12.752 40.5053 12.104C40.0013 11.456 39.1733 11.132 38.0213 11.132C36.8933 11.132 36.0293 11.468 35.4293 12.14C34.8533 12.812 34.5653 13.94 34.5653 15.524ZM56.5771 26.396C54.5851 26.396 53.0011 26.06 51.8251 25.388C50.6731 24.716 49.8451 23.696 49.3411 22.328C48.8371 20.96 48.5851 19.244 48.5851 17.18C48.5851 14.948 48.8971 13.124 49.5211 11.708C50.1691 10.292 51.1051 9.248 52.3291 8.576C53.5531 7.88 55.0651 7.532 56.8651 7.532C59.5291 7.532 61.5331 8.204 62.8771 9.548C64.2451 10.892 64.9291 13.016 64.9291 15.92L64.7131 18.584H53.4091C53.4331 19.928 53.7091 20.936 54.2371 21.608C54.7651 22.28 55.6771 22.616 56.9731 22.616C57.7171 22.616 58.5331 22.604 59.4211 22.58C60.3091 22.532 61.1851 22.484 62.0491 22.436C62.9371 22.388 63.6931 22.34 64.3171 22.292L64.4251 25.64C63.8251 25.736 63.0691 25.844 62.1571 25.964C61.2451 26.084 60.2971 26.18 59.3131 26.252C58.3531 26.348 57.4411 26.396 56.5771 26.396ZM53.4091 15.524H60.1411C60.1411 13.892 59.8771 12.752 59.3491 12.104C58.8451 11.456 58.0171 11.132 56.8651 11.132C55.7371 11.132 54.8731 11.468 54.2731 12.14C53.6971 12.812 53.4091 13.94 53.4091 15.524ZM74.4488 26.432C73.1288 26.432 72.0608 26.24 71.2448 25.856C70.4288 25.472 69.8408 24.812 69.4808 23.876C69.1448 22.916 68.9768 21.584 68.9768 19.88V11.924H66.8528V7.928H68.9768V3.14H73.7648V7.928H78.3728V11.924H73.7648V18.62C73.7648 19.556 73.8008 20.288 73.8728 20.816C73.9688 21.344 74.1608 21.716 74.4488 21.932C74.7368 22.148 75.1808 22.256 75.7808 22.256C75.9488 22.256 76.2008 22.244 76.5368 22.22C76.8728 22.196 77.2088 22.172 77.5448 22.148C77.8808 22.124 78.1568 22.1 78.3728 22.076L78.5168 25.928C77.9408 26.024 77.2448 26.132 76.4288 26.252C75.6368 26.372 74.9768 26.432 74.4488 26.432Z" fill="#090E01"/>
<path d="M89.1782 26V1.412H97.1702L102.138 17.828L106.998 1.412H115.098V26H110.13V7.784H109.626L104.478 25.352H99.7982L94.6502 7.784H94.1462V26H89.1782ZM119.335 26V7.928H124.123V26H119.335ZM119.335 5.048V0.943999H124.159V5.048H119.335ZM128.125 26V7.928H132.913V9.08C133.297 8.84 133.765 8.612 134.317 8.396C134.869 8.156 135.445 7.952 136.045 7.784C136.669 7.616 137.269 7.532 137.845 7.532C139.525 7.532 140.821 7.832 141.733 8.432C142.669 9.008 143.329 9.968 143.713 11.312C144.097 12.632 144.289 14.408 144.289 16.64V26H139.465V16.892C139.465 15.644 139.393 14.648 139.249 13.904C139.105 13.136 138.829 12.584 138.421 12.248C138.013 11.912 137.413 11.744 136.621 11.744C136.189 11.744 135.733 11.792 135.253 11.888C134.797 11.96 134.353 12.068 133.921 12.212C133.513 12.356 133.177 12.5 132.913 12.644V26H128.125ZM152.739 26.396C150.867 26.396 149.451 25.928 148.491 24.992C147.555 24.032 147.087 22.592 147.087 20.672C147.087 19.328 147.327 18.284 147.807 17.54C148.287 16.772 148.995 16.22 149.931 15.884C150.891 15.524 152.055 15.308 153.423 15.236L157.815 14.84V13.76C157.815 12.896 157.599 12.296 157.167 11.96C156.735 11.6 156.099 11.42 155.259 11.42C154.587 11.42 153.807 11.444 152.919 11.492C152.055 11.54 151.191 11.6 150.327 11.672C149.487 11.744 148.755 11.816 148.131 11.888L147.987 8.504C148.611 8.36 149.355 8.216 150.219 8.072C151.107 7.904 152.031 7.772 152.991 7.676C153.951 7.58 154.839 7.532 155.655 7.532C157.191 7.532 158.475 7.724 159.507 8.108C160.539 8.492 161.319 9.128 161.847 10.016C162.375 10.88 162.639 12.056 162.639 13.544V21.788C162.687 22.124 162.867 22.388 163.179 22.58C163.491 22.748 163.851 22.868 164.259 22.94L164.151 26.252C163.575 26.276 163.011 26.288 162.459 26.288C161.907 26.288 161.439 26.252 161.055 26.18C160.503 26.108 160.023 25.964 159.615 25.748C159.231 25.532 158.919 25.304 158.679 25.064C158.295 25.232 157.779 25.424 157.131 25.64C156.483 25.856 155.775 26.036 155.007 26.18C154.263 26.324 153.507 26.396 152.739 26.396ZM153.891 22.832C154.347 22.832 154.827 22.784 155.331 22.688C155.835 22.592 156.303 22.484 156.735 22.364C157.191 22.22 157.551 22.088 157.815 21.968V17.828L154.143 18.152C153.351 18.224 152.775 18.464 152.415 18.872C152.079 19.256 151.911 19.808 151.911 20.528C151.911 21.248 152.067 21.812 152.379 22.22C152.715 22.628 153.219 22.832 153.891 22.832ZM173.383 26.396C172.591 26.396 171.739 26.348 170.827 26.252C169.939 26.18 169.099 26.084 168.307 25.964C167.539 25.844 166.879 25.724 166.327 25.604L166.471 22.04C167.095 22.112 167.791 22.196 168.559 22.292C169.351 22.388 170.119 22.472 170.863 22.544C171.631 22.592 172.255 22.616 172.735 22.616C173.455 22.616 174.043 22.556 174.499 22.436C174.979 22.316 175.339 22.124 175.579 21.86C175.819 21.572 175.939 21.164 175.939 20.636C175.939 20.228 175.831 19.916 175.615 19.7C175.423 19.484 175.039 19.304 174.463 19.16C173.911 18.992 173.095 18.824 172.015 18.656C170.671 18.464 169.555 18.188 168.667 17.828C167.803 17.468 167.167 16.94 166.759 16.244C166.351 15.524 166.147 14.552 166.147 13.328C166.147 11.84 166.471 10.676 167.119 9.836C167.767 8.996 168.631 8.408 169.711 8.072C170.791 7.712 171.967 7.532 173.239 7.532C174.079 7.532 174.943 7.58 175.831 7.676C176.719 7.748 177.559 7.844 178.351 7.964C179.143 8.084 179.803 8.204 180.331 8.324L180.187 11.96C179.587 11.864 178.891 11.78 178.099 11.708C177.307 11.612 176.515 11.54 175.723 11.492C174.955 11.444 174.307 11.42 173.779 11.42C173.227 11.42 172.735 11.48 172.303 11.6C171.871 11.696 171.535 11.864 171.295 12.104C171.079 12.344 170.971 12.704 170.971 13.184C170.971 13.52 171.067 13.796 171.259 14.012C171.451 14.228 171.811 14.42 172.339 14.588C172.891 14.732 173.683 14.876 174.715 15.02C176.203 15.236 177.391 15.536 178.279 15.92C179.167 16.304 179.803 16.856 180.187 17.576C180.595 18.296 180.799 19.268 180.799 20.492C180.799 22.676 180.151 24.212 178.855 25.1C177.583 25.964 175.759 26.396 173.383 26.396Z" fill="#88CC11"/>
</svg>
